<?xml version="1.0" standalone="no"?>
<!DOCTYPE svg PUBLIC "-//W3C//DTD SVG 20010904//EN"
 "http://www.w3.org/TR/2001/REC-SVG-20010904/DTD/svg10.dtd">
<svg version="1.0" xmlns="http://www.w3.org/2000/svg"
 width="82.000000pt" height="95.000000pt" viewBox="0 0 82.000000 95.000000"
 preserveAspectRatio="xMidYMid meet">

<g transform="translate(0.000000,95.000000) scale(0.100000,-0.100000)"
fill="#000000" stroke="none">
<path d="M423 706 c-65 -60 -121 -145 -87 -132 86 33 194 44 281 27 39 -8 63
0 63 20 0 4 -23 24 -52 46 -28 21 -67 50 -87 65 -20 15 -41 27 -48 28 -6 0
-38 -24 -70 -54z"/>
<path d="M265 724 c-33 -14 -70 -29 -83 -35 -16 -6 -22 -15 -18 -27 2 -9 8
-33 11 -52 9 -41 44 -114 73 -150 l20 -25 7 58 c7 54 46 149 78 192 11 14 12
25 4 42 -13 29 -18 28 -92 -3z"/>
<path d="M111 646 c-8 -9 -11 -57 -9 -142 l3 -128 55 -18 c30 -9 84 -17 119
-17 l64 -1 -39 28 c-88 64 -164 183 -164 257 0 29 -14 39 -29 21z"/>
<path d="M501 553 c74 -62 137 -158 169 -257 11 -34 14 -36 27 -23 12 12 16
43 17 139 l1 123 -65 22 c-37 13 -90 22 -123 23 l-59 0 33 -27z"/>
<path d="M530 444 c0 -60 -26 -136 -65 -194 -19 -29 -35 -55 -35 -59 0 -4 10
-13 23 -20 19 -10 34 -6 111 29 84 39 88 42 82 68 -10 41 -70 164 -94 192
l-21 25 -1 -41z"/>
<path d="M100 329 c0 -25 187 -169 220 -169 22 0 82 54 121 108 52 73 51 84
-3 64 -70 -24 -192 -26 -270 -4 -65 18 -68 19 -68 1z"/>
</g>
</svg>
